<mxfile host="app.diagrams.net" modified="2020-11-29T13:16:00.482Z" agent="5.0 (Windows NT 10.0; Win64; x64) AppleWebKit/537.36 (KHTML, like Gecko) Chrome/87.0.4280.66 Safari/537.36" etag="_xPNhQJUcQZj3802gZW5" version="13.10.0" type="github" pages="2">
  <diagram id="PpXCEsjR6pPxlbgcn5NM" name="Page-1">
    <mxGraphModel dx="744" dy="393" grid="1" gridSize="10" guides="1" tooltips="1" connect="1" arrows="1" fold="1" page="1" pageScale="1" pageWidth="850" pageHeight="1100" math="0" shadow="0">
      <root>
        <mxCell id="0" />
        <mxCell id="1" parent="0" />
        <mxCell id="1RYoB_2Nx6tBGsDQP7-6-3" value="" style="rounded=0;whiteSpace=wrap;html=1;fillColor=#000000;" vertex="1" parent="1">
          <mxGeometry x="240" y="60" width="280" height="220" as="geometry" />
        </mxCell>
        <mxCell id="1RYoB_2Nx6tBGsDQP7-6-4" value="" style="rounded=0;whiteSpace=wrap;html=1;" vertex="1" parent="1">
          <mxGeometry x="110" y="60" width="120" height="220" as="geometry" />
        </mxCell>
        <mxCell id="1RYoB_2Nx6tBGsDQP7-6-5" value="Questions" style="text;html=1;strokeColor=none;fillColor=none;align=center;verticalAlign=middle;whiteSpace=wrap;rounded=0;" vertex="1" parent="1">
          <mxGeometry x="150" y="80" width="40" height="20" as="geometry" />
        </mxCell>
        <mxCell id="1RYoB_2Nx6tBGsDQP7-6-6" value="&lt;font color=&quot;#ffffff&quot;&gt;Linux Terminal connecting to VM (in Linode.&lt;br&gt;If in active for 15 minutes VM should get destroyed.&lt;br&gt;&lt;/font&gt;" style="text;html=1;strokeColor=none;fillColor=none;align=left;verticalAlign=middle;whiteSpace=wrap;rounded=0;" vertex="1" parent="1">
          <mxGeometry x="310" y="140" width="120" height="20" as="geometry" />
        </mxCell>
        <mxCell id="1RYoB_2Nx6tBGsDQP7-6-7" value="" style="triangle;whiteSpace=wrap;html=1;" vertex="1" parent="1">
          <mxGeometry x="200" y="155" width="20" height="30" as="geometry" />
        </mxCell>
        <mxCell id="1RYoB_2Nx6tBGsDQP7-6-8" value="" style="triangle;whiteSpace=wrap;html=1;rotation=-180;" vertex="1" parent="1">
          <mxGeometry x="120" y="155" width="20" height="30" as="geometry" />
        </mxCell>
        <mxCell id="1RYoB_2Nx6tBGsDQP7-6-10" value="Notepad icon" style="rounded=0;whiteSpace=wrap;html=1;fillColor=#FFFFFF;" vertex="1" parent="1">
          <mxGeometry x="430" y="70" width="80" height="40" as="geometry" />
        </mxCell>
        <mxCell id="1RYoB_2Nx6tBGsDQP7-6-11" value="Next Button" style="text;html=1;strokeColor=none;fillColor=none;align=center;verticalAlign=middle;whiteSpace=wrap;rounded=0;" vertex="1" parent="1">
          <mxGeometry x="150" y="165" width="40" height="20" as="geometry" />
        </mxCell>
        <mxCell id="1RYoB_2Nx6tBGsDQP7-6-13" value="Verify" style="rounded=1;whiteSpace=wrap;html=1;fillColor=#FFFFFF;" vertex="1" parent="1">
          <mxGeometry x="140" y="230" width="60" height="20" as="geometry" />
        </mxCell>
      </root>
    </mxGraphModel>
  </diagram>
  <diagram id="EDYKL_lpXK6bw9eO3c80" name="Page-2">
    <mxGraphModel dx="812" dy="393" grid="1" gridSize="10" guides="1" tooltips="1" connect="1" arrows="1" fold="1" page="1" pageScale="1" pageWidth="850" pageHeight="1100" math="0" shadow="0">
      <root>
        <mxCell id="ZK3sCZXQTPL_TSSvelDJ-0" />
        <mxCell id="ZK3sCZXQTPL_TSSvelDJ-1" parent="ZK3sCZXQTPL_TSSvelDJ-0" />
        <mxCell id="ZK3sCZXQTPL_TSSvelDJ-2" value="Developer" style="shape=umlActor;verticalLabelPosition=bottom;verticalAlign=top;html=1;outlineConnect=0;" vertex="1" parent="ZK3sCZXQTPL_TSSvelDJ-1">
          <mxGeometry x="110" y="260" width="30" height="60" as="geometry" />
        </mxCell>
        <mxCell id="ZK3sCZXQTPL_TSSvelDJ-3" value="Onestop" style="ellipse;whiteSpace=wrap;html=1;" vertex="1" parent="ZK3sCZXQTPL_TSSvelDJ-1">
          <mxGeometry x="90" y="150" width="120" height="80" as="geometry" />
        </mxCell>
        <mxCell id="ZK3sCZXQTPL_TSSvelDJ-4" value="IDP&lt;br&gt;1&lt;br&gt;2&lt;br&gt;3" style="rhombus;whiteSpace=wrap;html=1;" vertex="1" parent="ZK3sCZXQTPL_TSSvelDJ-1">
          <mxGeometry x="240" y="30" width="80" height="80" as="geometry" />
        </mxCell>
        <mxCell id="ZK3sCZXQTPL_TSSvelDJ-5" value="onboard project 1" style="rounded=0;whiteSpace=wrap;html=1;" vertex="1" parent="ZK3sCZXQTPL_TSSvelDJ-1">
          <mxGeometry x="220" y="170" width="190" height="90" as="geometry" />
        </mxCell>
        <mxCell id="ZK3sCZXQTPL_TSSvelDJ-6" value="Team lead" style="shape=umlActor;verticalLabelPosition=bottom;verticalAlign=top;html=1;outlineConnect=0;" vertex="1" parent="ZK3sCZXQTPL_TSSvelDJ-1">
          <mxGeometry x="470" y="280" width="30" height="60" as="geometry" />
        </mxCell>
        <mxCell id="ZK3sCZXQTPL_TSSvelDJ-7" value="Onestop" style="ellipse;whiteSpace=wrap;html=1;" vertex="1" parent="ZK3sCZXQTPL_TSSvelDJ-1">
          <mxGeometry x="450" y="170" width="120" height="80" as="geometry" />
        </mxCell>
        <mxCell id="ZK3sCZXQTPL_TSSvelDJ-8" value="IDP&lt;br&gt;1&lt;br&gt;2&lt;br&gt;3" style="rhombus;whiteSpace=wrap;html=1;" vertex="1" parent="ZK3sCZXQTPL_TSSvelDJ-1">
          <mxGeometry x="600" y="50" width="80" height="80" as="geometry" />
        </mxCell>
        <mxCell id="ZK3sCZXQTPL_TSSvelDJ-9" value="onboard project 1" style="rounded=0;whiteSpace=wrap;html=1;" vertex="1" parent="ZK3sCZXQTPL_TSSvelDJ-1">
          <mxGeometry x="580" y="190" width="190" height="90" as="geometry" />
        </mxCell>
        <mxCell id="ZK3sCZXQTPL_TSSvelDJ-10" value="&lt;b&gt;1&lt;/b&gt;" style="text;html=1;strokeColor=none;fillColor=none;align=center;verticalAlign=middle;whiteSpace=wrap;rounded=0;" vertex="1" parent="ZK3sCZXQTPL_TSSvelDJ-1">
          <mxGeometry x="120" y="80" width="40" height="20" as="geometry" />
        </mxCell>
        <mxCell id="ZK3sCZXQTPL_TSSvelDJ-15" value="&lt;b&gt;2&lt;/b&gt;" style="text;html=1;strokeColor=none;fillColor=none;align=center;verticalAlign=middle;whiteSpace=wrap;rounded=0;" vertex="1" parent="ZK3sCZXQTPL_TSSvelDJ-1">
          <mxGeometry x="510" y="90" width="40" height="20" as="geometry" />
        </mxCell>
        <mxCell id="ZK3sCZXQTPL_TSSvelDJ-16" value="Adminstration key..&lt;br&gt;&lt;br&gt;IDP AD token(1 hour)." style="rounded=1;whiteSpace=wrap;html=1;" vertex="1" parent="ZK3sCZXQTPL_TSSvelDJ-1">
          <mxGeometry x="380" y="10" width="200" height="60" as="geometry" />
        </mxCell>
      </root>
    </mxGraphModel>
  </diagram>
</mxfile>
